<svg width="50" height="37" viewBox="0 0 50 37" fill="none" xmlns="http://www.w3.org/2000/svg">
<path d="M29.9314 2.0164C29.9223 0.905461 30.8204 0 31.9314 0H47.5957C48.7003 0 49.5957 0.895431 49.5957 2V17.3138C49.5957 17.8539 49.3772 18.3711 48.99 18.7477L33.5741 33.737C32.312 34.9643 30.1944 34.0799 30.18 32.3195L29.9314 2.0164Z" fill="#4D3E2E" fill-opacity="0.9"/>
<path d="M0.0165384 2.0164C0.00742654 0.905461 0.90549 0 2.01647 0H17.6809C18.7854 0 19.6809 0.895431 19.6809 2V17.3138C19.6809 17.8539 19.4624 18.3711 19.0751 18.7477L3.65926 33.737C2.3971 34.9643 0.279522 34.0799 0.265083 32.3195L0.0165384 2.0164Z" fill="#4D3E2E" fill-opacity="0.9"/>
</svg>
